<svg version="1.1" xmlns="http://www.w3.org/2000/svg" xmlns:xlink="http://www.w3.org/1999/xlink" width="294.03305" height="313.64608" viewBox="0,0,294.03305,313.64608"><g transform="translate(-117.5,-18.94656)"><g data-paper-data="{&quot;isPaintingLayer&quot;:true}" fill="#9966ff" fill-rule="nonzero" stroke="none" stroke-width="0.5" stroke-linecap="butt" stroke-linejoin="miter" stroke-miterlimit="10" stroke-dasharray="" stroke-dashoffset="0" style="mix-blend-mode: normal"><path d="M226.06155,164.14279c-0.40978,-0.04595 -0.81566,-0.09103 -1.21669,-0.13613c-2.40001,-0.26989 -4.86104,0.34595 -7.24531,-0.03894c-1.04062,-0.16799 -1.96374,-0.80691 -3,-1c-2.56363,-0.47768 -5.16504,0.6094 -7.39536,1.71193c0.1043,0.85375 0.93882,1.46145 1.56358,2.05259c3.38459,3.20242 7.03832,6.16989 12.00049,3.59227c1.84066,-0.95614 3.12282,-2.74863 4.845,-3.90463l-1.11325,0.08013c0,0 0,-1.82677 1.56155,-2.35721zM228.50031,164.4286c0.99969,0.71448 0.99969,2.0714 0.99969,2.0714l-1.11325,4.08013c-3.77445,2.4966 -5.18526,4.77323 -10.08129,5.40114c-5.77009,0.74001 -9.27005,-1.76499 -13.07323,-5.7135c-0.87639,-0.90988 -2.17165,-1.60324 -2.54193,-2.81106c-0.50193,-1.63727 0.07034,-3.42424 0.10551,-5.13635c1.3976,-1.03555 2.62674,-2.34961 4.1928,-3.10664c1.9477,-0.94151 3.59539,-1.22225 5.19773,-1.18004c-2.48333,-4.07982 -6.40267,-4.80229 -11.7844,-6.10626c-1.38649,-0.33594 -2.79325,-0.61437 -4.21317,-0.75232c-0.51136,-0.04968 -1.23618,-0.22771 -1.529,0.19445c-0.02731,0.03938 -0.05427,0.07873 -0.08089,0.11807c0.36288,0.28352 0.67631,0.7254 0.84647,1.40605c0.60634,2.42536 -1.81902,3.0317 -1.81902,3.0317c-0.22594,0.05638 -0.45358,0.1087 -0.68234,0.15842c-0.36775,6.14107 6.29566,11.61257 10.6699,15.69006c1.61339,1.50394 4.6143,4.49581 6.56637,5.51171c2.56832,1.33661 5.50078,1.80948 8.24019,2.74673c0.44856,-0.00557 0.90296,-0.00347 1.36152,0.00349c0.97391,-0.37163 1.94847,-0.74115 2.93429,-1.06976c3.21861,-1.05479 6.12303,-2.79235 8.98941,-4.59264c2.68919,-1.689 5.12884,-3.75355 7.56478,-5.79086c0.43471,-0.36357 1.0777,-0.52913 1.39755,-0.98437c-3.63618,-1.87636 -7.9909,-2.64942 -12.14769,-3.16954zM241.06664,174.91503c0.28619,-0.35697 1.40734,-1.71871 2.05462,-3.07276c-0.17947,0.14696 -0.35459,0.29589 -0.51906,0.45048c-3.39753,3.19331 -4.34044,3.84354 -8.28787,6.33388c-0.34929,0.22036 -0.69924,0.43875 -1.05019,0.65455c2.99921,-0.70272 5.86084,-1.94428 7.80251,-4.36615zM218.14961,158.98816c0.08309,0.01488 0.1667,0.02959 0.25085,0.04412c2.28253,0.39405 4.64644,-0.2531 6.94888,-0.0001c2.68892,0.29546 5.31778,1.01095 7.99936,1.36695c1.15341,0.15312 2.33589,0.18331 3.49203,0.3274c-1.63232,-1.92141 -3.70606,-4.05917 -5.3025,-5.19843c-5.98862,-4.27362 -13.15749,-4.76276 -20.04682,-6.29847c-6.55393,-1.46095 -12.35492,-4.20774 -19.18595,-4.24836c-1.23304,0.3147 -2.45243,0.68877 -3.69912,0.94409c-0.95888,0.19637 -2.11763,-0.16878 -2.90772,0.40895c-0.53368,0.39023 -0.15643,1.31749 -0.32692,1.95626c-0.26356,0.98755 -0.67192,1.93115 -0.97141,2.9084c-0.2825,0.92182 -0.45272,1.82648 -0.51545,2.72335c0.24071,-0.17724 0.50654,-0.35954 0.80082,-0.54895c0.74831,-0.48164 2.81149,-1.07442 4.65637,-1.5489c0.49512,-1.51602 0.88866,-3.10635 1.99819,-4.19401c2.54805,-2.49782 7.61022,-1.13671 10.25783,-0.55788c6.82495,1.49211 11.87374,2.8127 15.61639,9.26714c0.47001,0.81057 0.67861,1.74044 0.93516,2.64843zM246.88863,165.862c2.48846,2.85388 1.73395,5.80843 0.35715,8.73638c-3.33805,7.09883 -10.68616,9.5868 -17.973,10.38669c-2.8354,0.31125 -5.97267,0.15645 -8.97308,0.0509c-2.66291,0.88594 -5.70721,1.89327 -5.89926,1.93174c-8.12199,1.6269 -16.12879,-0.95496 -22.78721,-5.38759c-0.39572,-0.26344 -6.16318,-4.09633 -6.33129,-4.26399c-4.93354,-4.92026 -6.54773,-9.21405 -4.94026,-15.57061c-2.2715,-5.02532 -1.63903,-9.95038 0.28659,-15.03609c0.51654,-1.36421 0.55221,-3.11018 1.67308,-4.04374c0.74084,-0.61703 8.14696,-2.34101 9.39317,-2.64696c7.51266,-0.0333 13.71714,2.74324 20.91456,4.33742c7.58598,1.68025 15.27115,2.41103 21.85268,7.11574c1.25912,0.90006 2.20704,2.17048 3.30599,3.26034c2.64387,2.622 6.5623,6.10178 7.68597,10.05406c0.54004,0.28109 1.03551,0.61767 1.4349,1.07571zM207.83973,181.71445c-2.61488,-1.37773 -5.47151,-4.25084 -7.65371,-6.28187c-1.73338,-1.61331 -3.76871,-3.43857 -5.67755,-5.43845c-0.08661,0.4072 -0.30749,0.84041 -0.74071,1.27363c-1.76777,1.76777 -3.53553,0 -3.53553,0l-2,-2c-1.11188,-1.12241 -2.61185,-2.05825 -4.01589,-3.07432c-0.0366,0.50441 0.00716,1.02748 0.17639,1.5821c0.27373,0.89708 1.09409,1.52374 1.64812,2.28053c3.00244,4.1013 6.79036,6.7319 11.21397,9.28166c3.54115,2.04111 8.25026,3.19824 12.64165,3.10261c-1.10747,-0.37207 -1.92232,-0.65507 -2.05673,-0.72588zM187.31433,157.62663c-1.39932,0.72735 -1.48624,2.00626 -1.68012,3.36658c0.99368,1.24156 2.91931,2.37004 4.48064,3.44116c-1.34789,-2.23887 -2.21385,-4.61566 -2.18906,-7.09476c-0.20701,0.0876 -0.41101,0.18283 -0.61146,0.28702z"/><path d="M301.41317,184.75145c1.56266,-0.31274 3.08105,-0.80467 4.48845,-1.49724c1.84241,-0.90664 2.98853,-2.88458 4.78405,-3.88084c0.67349,-0.37369 1.72952,0.19713 2.28622,-0.33515c0.38703,-0.37004 0.04426,-1.15661 -0.28159,-1.58152c-0.88388,-1.15256 -2.25448,-1.85502 -3.19961,-2.9579c-0.53679,-0.62638 -0.5517,-1.64949 -1.19321,-2.16811c-1.79747,-1.45317 -4.14306,-2.09171 -6.02194,-3.43796c-3.83278,0.18068 -7.20976,0.55134 -10.97008,1.08854c-2.0549,0.29356 -3.17098,-0.53904 -4.99113,0.64536c-0.79023,0.51422 -1.18476,1.52642 -2,2c-0.7569,0.43969 -1.81789,0.1561 -2.54656,0.64114c-1.62164,1.07945 2.10268,5.52071 2.31236,5.84548c0.49736,0.77038 0.71208,1.78798 1.40532,2.37405c-0.25777,-3.72445 1.89412,-7.12672 6.51455,-7.4873c1.31431,-0.10257 2.52705,0.75219 3.79057,1.12829c0,0 2.37171,0.79057 1.58114,3.16228c-0.79057,2.37171 -3.16228,1.58114 -3.16228,1.58114c-1.06714,-0.42103 -2.76732,-1.64603 -3.37513,-0.67308c-0.87538,1.40126 -0.54452,2.85836 0.32951,3.96848c2.37102,0.10713 4.85024,-0.1671 6.83619,-0.1671h1c0,0 1.97202,0 2.41317,1.75145zM288.53918,187.80662c-2.14847,-0.32201 -4.21954,-0.99819 -6.11437,-2.36528c-1.1755,-0.84811 -1.68778,-2.35736 -2.50494,-3.55458c-1.86015,-2.72533 -3.90684,-5.78552 -3.30334,-8.94395c-0.18645,0.03691 -0.39135,0.0572 -0.61653,0.0572c-2.5,0 -2.5,-2.5 -2.5,-2.5l0.12829,-0.20943c-0.3761,-1.26352 -1.16814,-2.47286 -1.12829,-3.79057c0.10031,-3.31734 1.7266,-5.60624 4.1124,-7.10953c-3.50704,1.65007 -5.93752,3.90508 -8.00063,7.61317c-1.72878,3.10718 -3.09534,5.04629 -1.36598,8.39798c5.95542,11.54226 20.36172,14.73007 31.51843,18.71805c5.61549,1.60306 10.87039,3.64735 16.83532,2.91261c3.72919,-0.45935 6.50067,-4.07777 8.47459,-6.86848c2.16147,-3.05587 4.95963,-6.9342 3.53314,-10.93934c-0.35946,-1.00925 -1.37533,-1.66714 -1.85306,-2.62608c-0.39912,-0.80114 -0.18692,-1.87795 -0.74098,-2.58089c-0.59153,-0.75048 -1.67186,-0.9322 -2.45716,-1.47664c-1.3697,-0.94959 -2.64781,-2.02564 -4,-3c-7.0174,-5.0566 -16.39402,-6.50983 -24.85258,-6.57166c-1.03081,-0.33321 -2.02025,-0.84461 -3.09243,-0.99962c-3.01639,-0.43611 -6.00101,-0.01746 -8.82049,0.90215c-1.62972,0.53155 -4.44668,1.14718 -4.29057,3.62829c0.04972,0.79016 0.58114,1.47295 0.87171,2.20943l0.05907,0.82446c0.84428,-0.71504 2.28281,-0.5618 3.25489,-1.16052c0.80276,-0.49443 1.17913,-1.53625 2,-2c2.07176,-1.17046 4.65326,-1.01813 7.00887,-1.35464c4.48723,-0.64102 8.42858,-1.04399 13.02992,-0.91146c2.58985,1.63625 5.61333,2.61455 7.97806,4.56204c0.83911,0.69105 1.04862,1.91848 1.73573,2.76082c1.19013,1.45901 3.26398,2.331 3.87145,4.11316c0.69094,2.02703 0.66733,4.49864 -0.28159,6.41848c-0.60112,1.21618 -2.56999,0.93535 -3.71378,1.66485c-1.86787,1.19131 -3.23921,3.11882 -5.21595,4.11916c-4.21401,2.13253 -9.83843,2.99174 -14.49883,2.22193c-1.91977,-0.31711 -3.66687,-0.96567 -5.06036,-2.1611zM279.63861,157.99732c1.07826,-0.35438 2.22309,-0.60989 3.39317,-0.77964c-0.30867,-0.15867 -0.6239,-0.26514 -0.95834,-0.21876c-0.87299,0.12107 -1.65201,0.56162 -2.43483,0.9984zM287.06597,156.95212c2.77997,0.02038 5.43774,0.43812 7.4248,1.07944c8.27161,0.00086 16.10528,1.71549 23.6076,5.22266c1.5816,0.73936 6.21483,4.37695 7.34555,5.20494c1.16978,0.85659 2.63158,1.39565 3.54284,2.52336c0.76333,0.94465 0.71467,2.33342 1.25902,3.41911c0.59747,1.19163 1.74347,2.10342 2.14694,3.37392c0.37592,1.18375 0.10727,2.48246 0.10727,3.72446c0,1.57523 0.32668,3.21019 -0.10727,4.72446c-0.3928,1.37067 -1.53164,2.40553 -2.28324,3.6172c-3.22796,5.2039 -7.093,11.08875 -13.70904,12.12606c-6.70955,1.05198 -12.861,-1.28484 -19.16468,-3.08739c-7.59975,-2.71193 -16.88103,-4.80632 -23.65112,-9.31955c-0.20061,-0.13374 -4.5467,-4.4846 -5.35243,-5.29301c-2.40653,-2.41455 -3.96254,-3.57335 -5.47802,-6.66939c-4.80854,-9.82358 5.13827,-20.44693 13.73603,-23.58613c1.81494,-0.66267 3.51285,-1.82835 5.43632,-2.01117c1.33567,-0.12695 2.576,0.75148 3.864,1.12721c0,0 2.37171,0.79057 1.58114,3.16228c-0.0852,0.25559 -0.18876,0.47446 -0.30573,0.66155z"/><path d="M261.5,185.5c0,2.5 -2.5,2.5 -2.5,2.5h-3c-1.76048,-0.02186 -3.54578,0.29547 -5.20943,0.87171c0,0 -2.37171,0.79057 -3.16228,-1.58114c-0.79057,-2.37171 1.58114,-3.16228 1.58114,-3.16228c2.18329,-0.70585 4.49612,-1.10651 6.79057,-1.12829h3c0,0 2.5,0 2.5,2.5z"/><path d="M220,248c-2.5,0 -2.5,-2.5 -2.5,-2.5l0.26393,-3.11803c4.63219,-9.26414 8.36875,-18.732 13,-28c0,0 1.11803,-2.23607 3.3541,-1.11803c2.23607,1.11803 1.11803,3.3541 1.11803,3.3541c-4.63379,9.26191 -8.36935,18.73847 -13,28l0.26393,0.88197c0,0 0,2.5 -2.5,2.5z"/><path d="M269.43088,257.04824c3.74714,-7.12362 8.35338,-13.91437 11.22441,-21.41561c1.99725,-5.2183 1.25268,-10.72337 2.98003,-15.94398c0.50302,-1.52028 1.41908,-2.87113 2.12862,-4.30669c0,0 1.11803,-2.23607 3.3541,-1.11803c2.23607,1.11803 1.11803,3.3541 1.11803,3.3541c-3.22366,6.36211 -2.36631,13.12677 -4.89136,19.74933c-3.36603,8.82822 -9.07109,16.67094 -13.08259,25.19696l-3.59254,-2.31172l-0.93171,0.18306c0.09413,-0.20006 0.18922,-0.39974 0.28522,-0.59907l-0.5231,-0.3366c0,0 0,-2.10451 1.93088,-2.45176z"/><path d="M407.5,71.5c0,2.5 -2.5,2.5 -2.5,2.5l-2.38675,-0.41987c-1.97858,-1.35229 -4.42402,-1.84474 -6.62463,-2.79384c-6.17239,-2.66208 -10.8883,-6.87709 -17.98862,-6.78629c0,0 -2.5,0 -2.5,-2.5c0,-2.5 2.5,-2.5 2.5,-2.5c6.04079,0.06092 11.97665,2.32664 17.25482,5.33772c0.96541,0.55075 1.7339,1.44068 2.75657,1.87599c2.46655,1.04991 5.13145,1.73952 7.37537,3.20616l-0.38675,-0.41987c0,0 2.5,0 2.5,2.5z"/><path d="M276.5,97.5c0,-0.84415 0.28503,-1.40326 0.66261,-1.77358c-1.94163,0.37738 -3.90749,0.61929 -5.90946,0.66507c0.24685,0.57445 0.24685,1.10852 0.24685,1.10852l-0.12829,1.79057c-0.37361,1.05736 -0.90316,2.34321 -1.58776,3.60143c3.1202,0.04255 6.24559,0.20393 9.32853,0.28014c4.35926,0.10777 9.43034,-0.13828 13.47482,1.95449c-0.08729,-0.35956 -0.08729,-0.62663 -0.08729,-0.62663c0.01347,-0.71861 -0.03557,-1.44573 -0.07649,-2.17176c-2.33573,-0.87227 -4.7814,-1.5795 -7.20324,-1.97719c-0.39609,0.50592 -0.8144,1.00357 -1.14014,1.53569c0,0 -1.38675,2.08013 -3.46688,0.69338c-1.2112,-0.80747 -1.24699,-1.85002 -1.06553,-2.58013h-0.54772c0,0 -2.5,0 -2.5,-2.5zM265.59954,95.96772c-1.53816,-0.27278 -3.23516,-0.62357 -4.36731,-1.69995c-1.03599,-0.98496 -1.10412,-2.63795 -1.60394,-3.9772c-1.54995,-4.15305 -4.13055,-8.34409 1.415,-11.10027c3.41468,-1.69712 4.42599,0.47097 7.35716,0.84198c1.71103,0.21657 3.493,-0.35143 5.17393,0.0346c2.01741,0.4633 4.01479,1.38583 5.98243,2.48734c0.0234,-0.58503 0.02654,-1.16891 -0.03808,-1.74876c-0.15222,-1.36591 -0.80645,-2.63933 -1,-4c-0.13158,-0.92502 0.26595,-1.89815 0.03232,-2.80279c-0.95145,-3.68416 -2.52017,-5.20873 -4.52157,-7.96413c-3.52498,-4.85297 -5.69096,-10.11822 -8.27904,-15.44788l-0.25045,-2.09065c0,0 0,-2.5 2.5,-2.5c2.5,0 2.5,2.5 2.5,2.5l-0.25045,-0.09065c2.42258,5.00415 4.40848,10.00289 7.72096,14.55212c2.42434,3.3295 4.34944,5.69661 5.47843,10.03587c0.26836,1.03145 -0.119,2.14221 0.03232,3.19721c0.19513,1.36045 0.84868,2.63399 1,4c0.18002,1.62507 -0.21548,3.28251 -0.01355,4.905c0.0205,0.16475 0.04404,0.33179 0.07025,0.50091c0.64124,0.40384 1.27818,0.80081 1.91047,1.1803c-0.11649,-2.24137 -0.35704,-4.49632 0.08385,-6.6812c1.25594,-6.224 4.64948,-12.54886 7.46772,-18.18971l0.76393,-1.52786c0,0 1.11803,-2.23607 3.3541,-1.11803c2.23607,1.11803 1.11803,3.3541 1.11803,3.3541l-0.76393,1.52786c-2.59063,5.1771 -5.82146,11.04544 -7.00442,16.75456c-0.35247,1.70105 -0.20633,3.45162 -0.07969,5.20078c0.06775,-0.02257 0.13564,-0.04513 0.20365,-0.06766c3.12533,-0.03078 6.535,0.24449 9.91683,0.37419c2.6336,-2.83901 5.51781,-5.46961 8.25926,-8.21106c0.50613,-0.50613 5.52585,-5.5303 5.64726,-5.63005c0.78375,-0.64393 1.94896,-0.80478 2.59821,-1.58413c0.50241,-0.60309 0.41004,-1.51539 0.61506,-2.27309l1.13564,-2.32746c0,0 1.11803,-2.23607 3.3541,-1.11803c2.23607,1.11803 1.11803,3.3541 1.11803,3.3541l-0.86436,1.67254c-0.46165,1.2423 -0.57033,2.68152 -1.38494,3.72691c-1.66755,2.13996 -4.30377,3.32881 -6.219,5.25028c-2.35322,2.36089 -4.88265,4.65763 -7.30932,7.04383c0.72775,-0.0673 1.44268,-0.15862 2.1411,-0.27932c3.5625,-0.61567 7.874,-2.59427 11.16822,0.69995c2.18545,2.18545 1.73223,6.13749 1.73223,8.76777c0,5.74535 -2.24385,16.09858 -9.40406,16.49816c-0.95543,0.05332 -7.2109,-1.67232 -8.41027,-2.37153c-0.8145,-0.47484 -1.19232,-1.51364 -2,-2c-1.89582,-1.14162 -4.09356,-1.74522 -5.94049,-2.96435c-0.08173,-0.04112 -0.1638,-0.08217 -0.2462,-0.12313c-0.01246,0.31143 -0.17759,2.37776 -2.36568,2.45842c0.82224,0.8473 1.55242,1.80557 2.45167,2.56907c1.01678,0.8633 2.45936,1.2346 3.28922,2.27885c1.17966,1.48442 2.14918,3.22886 2.55893,5.08012c0.45374,2.05004 0.4836,4.26562 -0.04039,6.29884c-0.0871,0.33796 -0.19028,0.66139 -0.30836,0.9707c1.86557,0.67829 3.73917,1.32344 5.6252,1.90766c4.22043,1.30731 8.7076,1.81417 12.96732,2.99057c4.53428,1.25222 8.99882,2.99655 13.46185,4.48143c1.78348,0.59338 3.56225,1.11513 5.33065,1.629c-0.06948,-1.43765 -0.20617,-2.88294 0.09749,-4.2782c0.33422,-1.53568 1.5711,-2.74609 2.06844,-4.23696c0.52667,-1.57878 0.45134,-3.31747 0.97828,-4.89616c0.49533,-1.48399 1.48995,-2.75996 2.0631,-4.21567c2.23153,-5.66773 3.603,-11.82129 5.53274,-17.61082c2.10189,-6.30604 4.77824,-12.66503 6.37432,-19.10768c0.42622,-1.72048 0.46111,-3.54608 1.08228,-5.20615c0.40398,-1.07963 1.6244,-1.75505 1.93757,-2.86443c0.36334,-1.2871 -0.36651,-2.72706 0.00366,-4.01221c0.35478,-1.23169 1.62961,-2.03335 2.08303,-3.23225c0.55016,-1.45467 0.58188,-3.05554 0.87283,-4.58331c1.8799,-4.92664 -1.99442,-8.35574 -5.33089,-11.69221l-1.4683,-2.64973c0,0 -1.11803,-2.23607 1.11803,-3.3541c2.23607,-1.11803 3.3541,1.11803 3.3541,1.11803l0.5317,1.35027c2.29411,2.29411 5.0116,4.94718 6.53758,8.05239c5.14871,-4.74657 10.58415,-8.88171 16.15213,-13.25201l0.77476,-0.80038c0,0 1.76777,-1.76777 3.53553,0c1.76777,1.76777 0,3.53553 0,3.53553l-1.22524,1.19962c-4.27379,3.34741 -8.46883,6.55525 -12.50877,10.02316c3.84136,-0.914 7.76917,-2.06982 11.6194,-2.45863c6.16987,-0.62305 12.7416,-0.05373 18.94637,0.00036l2.6099,-0.90399c0,0 2.37171,-0.79057 3.16228,1.58114c0.79057,2.37171 -1.58114,3.16228 -1.58114,3.16228l-3.3901,1.09601c-6.31434,0.04541 -12.97139,-0.58689 -19.24782,0.0392c-4.52676,0.45155 -9.20313,2.05207 -13.66236,2.94454c0,0 -2.15038,0.43008 -2.82592,-1.52938c-0.45262,0.42899 -0.90279,0.86342 -1.35039,1.30388c-0.24322,0.84468 -0.66721,1.66434 -0.91594,2.50826c-0.36278,1.74083 -0.46232,3.5581 -1.08834,5.22249c-0.39508,1.05042 -1.61115,1.68796 -1.91697,2.76775c-0.36223,1.27896 0.36995,2.70999 0.00366,3.98779c-0.36165,1.26164 -1.63954,2.10122 -2.10127,3.32977c-0.87626,2.33152 -0.97496,4.89831 -1.76114,7.26172c-3.2826,9.86814 -6.60786,19.71482 -9.67411,29.65258c-0.94446,3.06101 -2.50057,5.90594 -3.51231,8.94537c-0.52713,1.58359 -0.45123,3.32757 -0.98288,4.90965c-0.44913,1.33649 -1.61851,2.38829 -1.93156,3.76304c-0.32758,1.43855 0.04459,2.95041 0.06688,4.42562c0,0 0,0.07737 -0.01361,0.20488c2.97326,0.94926 5.90068,2.05208 8.75415,3.62463c9.27441,5.11111 17.78059,14.39096 21.13116,24.37993c0.94912,2.93577 1.44434,6.12537 1.09601,9.19103c-0.11901,1.04735 -0.86685,1.95435 -1,3c-0.33685,2.64531 0.43198,5.36855 0,8c-0.74602,4.54447 -2.57497,10.27412 -4.64822,14.40793c-2.15644,4.29968 -5.15115,6.66431 -7.72724,10.55998c-0.84289,1.27465 -1.17547,2.85025 -2.06416,4.0934c-3.43602,4.80652 -8.13081,8.80622 -12.01908,13.27543c-4.09855,4.71092 -7.81635,9.60021 -12.24126,14.03056c-6.48814,6.48814 -12.96824,12.98443 -19.46447,19.46447c-1.12185,1.11905 -2.33912,2.14932 -3.36995,3.35274c-0.90477,1.05626 -1.31866,2.54715 -2.41587,3.40179c-1.04679,0.81537 -2.47945,0.94681 -3.73138,1.38643c-4.67057,1.64005 -8.85287,2.12095 -13.7861,2.12681c-1.28152,0.00152 -2.58189,0.02801 -3.89282,0.06291c0.52755,0.83557 0.3588,1.84809 0.3588,1.84809c-0.50148,2.99135 -0.51085,6.05118 -1.00761,9.04331c-0.16969,1.02209 -0.86011,1.91832 -0.99066,2.94614c-0.49904,3.92917 0.54879,8.06568 0,12c-0.14562,1.04398 -0.82049,1.9613 -1,3c-0.60821,3.51929 0.50924,7.35031 0.01355,10.905c-0.61551,4.41393 -0.98127,8.18279 -0.98127,12.69454c0,1.16415 0.20777,2.34976 0.07909,3.50061c1.61513,-0.58077 3.38545,-0.63333 5.07273,-0.96855c4.50271,-0.02719 9.61197,0.53504 14.10184,-0.01989c2.67846,-0.33105 5.18712,-1.5448 7.85054,-1.98064c0.24943,-0.04082 5.92671,-0.03153 6.39581,-0.03153l0.88197,-0.73607c0,0 2.23607,-1.11803 3.3541,1.11803c1.11803,2.23607 -1.11803,3.3541 -1.11803,3.3541l-3.11803,1.26393c-1.86809,0 -3.76301,-0.34746 -5.60419,-0.03153c-2.75833,0.4733 -5.37226,1.67364 -8.14946,2.01936c-4.50204,0.56045 -9.56874,0.01284 -14.09236,0.01895c-0.78367,0.15795 -9.02793,1.94401 -9.61576,1.52133c-1.38947,-0.99912 -0.8427,-3.32792 -1.03822,-5.02811c-0.36649,-3.18689 -0.00957,-6.77718 0,-10c0.0073,-2.4587 0.66215,-4.87274 1.01873,-7.30546c0.52958,-3.61296 -0.56965,-7.479 0.01355,-11.095c0.16784,-1.04064 0.84707,-1.95706 1,-3c0.57033,-3.88951 -0.48159,-8.09117 0,-12c0.1311,-1.06407 0.8324,-1.99645 1.00934,-3.05386c0.49576,-2.96264 0.50121,-5.99328 0.99239,-8.95669c0,0 0.07212,-0.43273 0.33721,-0.90543c-3.44292,0.08822 -6.89733,0.11344 -10.21765,-0.21545c-1.65756,-0.16419 -3.24256,-0.81407 -4.89992,-0.98028c-2.70496,-0.27127 -5.46973,0.40003 -8.15556,-0.02035c-2.63125,-0.41184 -5.06078,-1.66172 -7.58549,-2.50962c-9.4744,-1.85232 -18.15004,-5.68005 -27.14325,-9.03449c-1.49851,-0.55894 -2.97628,-1.14604 -4.43546,-1.75981c-0.138,3.86825 -0.40747,7.85705 0.05393,11.5901c0.4686,3.79134 2.50655,7.15512 2.97989,10.84589c0.38816,3.02659 -0.31916,6.12165 0.02011,9.15411c0.18502,1.65375 0.77688,3.24346 0.9798,4.89511c0.35708,2.90647 -0.49613,6.07952 0.00009,8.95078c0.17951,1.0387 0.85438,1.95602 1,3c0.73637,5.27904 -0.30194,9.89847 -2,14.80091c0.01833,1.4758 -0.76997,3.03359 -0.26353,4.4199c0.16206,0.44363 0.75126,0.74798 1.22249,0.71633c1.13835,-0.07646 2.14088,-0.84021 3.26786,-1.01795c2.73469,-0.43129 5.53697,-0.02282 8.30546,-0.01873c5.78889,0.00854 11.33729,2.07032 17,2h1c0,0 2.5,0 2.5,2.5c0,2.5 -2.5,2.5 -2.5,2.5h-1c-5.73383,-0.05443 -11.18093,-2.00913 -17,-2c-2.56485,0.00402 -5.151,-0.34866 -7.69454,-0.01873c-1.59761,0.20723 -3.16636,1.36102 -4.73214,0.98205c-1.87816,-0.45457 -3.69116,-1.68556 -4.77751,-3.28367c-0.42038,-0.61842 -0.27292,-6.5909 -0.26353,-7.5801c1.43137,-4.42743 2.69869,-8.43426 2,-13.19909c-0.15293,-1.04294 -0.83216,-1.95936 -1,-3c-0.48627,-3.01503 0.34639,-6.2174 -0.03875,-9.24341c-0.21076,-1.65591 -0.80131,-3.25117 -0.98137,-4.9107c-0.31806,-2.93143 0.37444,-5.91862 0.02011,-8.84589c-0.45254,-3.73869 -2.53887,-7.28835 -3.02011,-11.15411c-0.57468,-4.61633 -0.0837,-9.59069 -0.01899,-14.29307c-9.16799,-4.3464 -17.66349,-9.73574 -26.06764,-15.7718c-3.72272,-2.67374 -4.35713,-3.4153 -7.95659,-6.20515c-2.34909,-1.82072 -5.1251,-3.11708 -7.23671,-5.20856c-1.55133,-1.53654 -2.75739,-3.48795 -4.59292,-4.6705c-2.35188,-1.52288 -4.12357,-3.80866 -5.97889,-5.90826c-2.86536,-3.24263 -6.56586,-5.87492 -9.10031,-9.41817c-1.84069,-2.57335 -2.74547,-5.73719 -4.58822,-8.30906c-1.59761,-2.22974 -3.97018,-3.92048 -5.21768,-6.3634c-2.50893,-4.91314 -5.14381,-9.99692 -7.10167,-15.23848c-1.94046,-5.19495 -2.47479,-10.1801 -3.13381,-15.55444c-0.33455,-2.7283 -1.65942,-5.27244 -2,-8c-0.38433,-3.07792 -0.01873,-6.20363 -0.01873,-9.30546c0,-4.11291 -0.41669,-8.07903 1.21371,-12.01138c0.46031,-1.11021 1.52657,-1.89533 2,-3c0.54139,-1.26324 0.456,-2.73788 1,-4c0.81938,-1.90101 2.33048,-3.45228 3.14252,-5.35643c3.43433,-8.05314 6.5772,-16.59259 15.04538,-20.87797c0.79932,-0.4045 1.61094,-0.75486 2.43244,-1.06187l0.27919,-0.77247c1.91358,-1.26573 3.25679,-3.49417 5.43004,-4.22957c3.58922,-1.21454 8.83907,0.31532 12.55625,-0.15802c1.04565,-0.13315 1.95936,-0.83216 3,-1c3.75258,-0.60523 7.12173,0.37077 10.67089,0.97791c-1.06007,-1.35967 -2.02971,-2.79864 -3.05415,-4.18415c-3.74593,-5.06621 -8.22922,-9.55418 -11.37847,-15.07107c-0.69856,-1.22375 -1.08374,-2.62112 -1.86592,-3.79319c-0.55556,-0.8325 -1.58236,-1.28996 -2.09852,-2.14745c-0.54362,-0.9031 -0.45767,-2.09612 -1,-3c-0.48507,-0.80845 -1.52243,-1.18709 -2,-2c-0.63102,-1.07411 -0.8405,-2.34553 -1.24508,-3.52376c-1.5888,-4.62696 -4.73507,-14.79199 -10.83449,-14.29909c-12.05671,-2.00355 -24.77714,-2.12066 -36.97411,-2.99799l-1.81968,0.00651c0,0 -2.5,0 -2.5,-2.5c0,-2.5 2.5,-2.5 2.5,-2.5l2.18032,0.00651c8.75119,0.63606 17.77304,0.86586 26.6254,1.68732c-0.02786,-0.04794 -0.04178,-0.07579 -0.04178,-0.07579c-1.33333,-2.66667 -2.66667,-5.33333 -4,-8l-0.5317,-0.35027c0,0 -1.76777,-1.76777 0,-3.53553c1.76777,-1.76777 3.53553,0 3.53553,0l1.4683,1.64973c1.33333,2.66667 2.66667,5.33333 4,8c0,0 0.78889,1.57779 -0.28402,2.74534c2.10034,0.24648 4.18706,0.53567 6.25415,0.88121c0.44612,0.02162 0.90423,-0.01014 1.36149,-0.03814c-0.11519,-0.02481 -0.23458,-0.05744 -0.35826,-0.09867c-2.37171,-0.79057 -1.58114,-3.16228 -1.58114,-3.16228c1.65971,-4.94806 3.8228,-9.35843 5.19621,-14.44118l2.40773,-2.53602c0,0 1.76777,-1.76777 3.53553,0c1.76777,1.76777 0,3.53553 0,3.53553l-1.59227,1.46398c-0.85356,3.8177 -2.38595,7.14179 -3.7524,10.66034c0.90773,-1.13431 1.7116,-2.36159 2.64355,-3.47706c2.77372,-3.31992 6.28089,-6.29748 9.34838,-9.34838l3.19822,-2.14677c0,0 2.08013,-1.38675 3.46688,0.69338c1.38675,2.08013 -0.69338,3.46688 -0.69338,3.46688l-2.80178,1.85323c-2.82467,2.84193 -6.09305,5.57292 -8.65162,8.65162c-1.41664,1.70463 -2.60454,3.60935 -4.16559,5.18279c0,0 -1.35889,1.35889 -2.88526,0.50242c0.68162,0.57264 1.23512,1.34828 1.88526,1.96205c3.80189,3.58922 5.4878,7.0037 7.54193,11.81106c0.77638,1.81698 0.78128,3.95964 1.81693,5.64238c0.49416,0.80293 1.51493,1.19155 2,2c0.54233,0.90388 0.45905,2.0953 1,3c0.45412,0.7595 1.41096,1.11604 1.90148,1.85255c1.50352,2.25753 2.50158,4.82989 4.04332,7.0615c2.84544,4.11864 6.19801,7.74034 9.16528,11.75374c1.47085,1.98941 2.77338,4.13758 4.53106,5.87877c0,0 0.84674,0.84674 0.78216,1.9542c1.9097,0.49547 3.80208,1.09064 5.75553,1.3323c1.35468,0.16759 2.74435,-0.18392 4.095,0.01355c2.50196,0.3658 4.84545,1.45415 7.29851,2.06742c4.16608,1.39469 8.29795,4.33034 12.70149,4.93258c5.33739,0.72996 10.70007,1.07669 16,2c1.54304,0.26882 2.9976,0.83601 4.42529,1.48505c1.4714,-0.75523 2.78929,-1.38987 3.58765,-1.8178c1.65058,-0.88474 3.13887,-2.22421 4.96889,-2.622c1.81396,-0.39431 5.13981,-0.65192 7.48554,0.46741c0.85687,-1.2816 1.49333,-2.95924 1.76047,-3.8355l-0.12829,-0.20943c0,0 0,-0.68548 0.35894,-1.33855c-0.41793,-0.05454 -0.83769,-0.11894 -1.25939,-0.19373zM275.88197,86.73607c-1.15783,-0.58989 -2.18555,-1.53162 -3.45635,-1.80295c-1.57327,-0.3359 -3.22944,0.23155 -4.82607,0.0346c-1.04616,-0.12905 -1.97724,-0.7449 -3,-1c-0.70152,-0.17497 -2.32073,-0.59969 -2.16642,0.10666c0.35741,1.63612 1.49011,3.02151 1.93859,4.63505c0.18399,0.66198 -0.05591,1.50532 0.39606,2.0228c0.364,0.41677 1.07986,0.2763 1.63269,0.30005c1.53181,0.06581 3.06633,-0.02898 4.59954,-0.03228c3.33953,-0.00718 6.30764,-0.49595 9.1852,-1.24156c-0.04806,-0.25639 -0.0965,-0.51272 -0.14455,-0.76911c-1.36597,-0.76982 -2.74142,-1.5312 -4.15868,-2.25326zM290.15565,91.7698c-0.89516,1.59429 -2.40023,1.28199 -3.00761,1.07322c-0.30863,0.10843 -0.61734,0.21608 -0.92621,0.32266c0.14881,0.80505 0.26199,1.60187 0.31369,2.37639c2.32321,0.42429 4.63617,1.07512 6.88281,1.87221c1.16294,-1.82024 3.19524,-4.84319 3.50154,-5.30103c0.21544,-0.32202 0.43585,-0.63997 0.66082,-0.95416c-1.7671,-0.08839 -3.50477,-0.17106 -5.17237,-0.19266c-0.75182,0.26491 -1.50247,0.53396 -2.25267,0.80337zM300.25482,100.33772c1.87336,1.2626 4.12062,1.87618 6.05951,3.03565c1.47708,0.8833 2.73229,2.24494 4.38464,2.72633c0.53587,0.15612 3.54627,1.58024 4.65153,0.5217c0.37862,-0.36261 0.31744,-0.99995 0.50574,-1.48922c1.39196,-3.61668 2.64376,-5.85406 2.64376,-9.63218c0,-1.74636 0.9671,-3.99737 -0.26777,-5.23223c-1.50853,-1.50853 -5.52258,0.4888 -6.83178,0.69995c-2.441,0.39369 -5.05366,0.4777 -7.70407,0.43431c-0.93515,1.12065 -1.81484,2.27803 -2.61626,3.48472c-0.98565,1.48408 -2.50887,2.71811 -3.29594,4.2829c0.84076,0.37656 1.66544,0.76755 2.47063,1.16807zM280.31185,95l0.68815,0c0.09529,0.00054 0.19064,0.00158 0.28604,0.0031c-0.0253,-0.08248 -0.05138,-0.16495 -0.07788,-0.24743c-0.29837,0.08378 -0.59713,0.1653 -0.89631,0.24432zM245.93072,114.38732c-0.02267,-0.43245 -0.02804,-0.86662 -0.0165,-1.30004c-0.23435,0.16606 -0.4615,0.34159 -0.67815,0.53075c-0.30348,0.26496 -0.85377,0.99709 -0.4683,1.1142c0.39683,0.12056 0.77891,-0.10743 1.16295,-0.34491zM274.43704,108.00327c0.59245,0.94092 0.9884,1.75695 1.04084,2.1649c0.19642,1.52793 -0.11291,2.81182 -0.7418,3.91434c1.05787,0.22384 2.11594,0.44745 3.1682,0.68388c0.0036,-0.00078 0.00721,-0.00157 0.01081,-0.00235c0.30818,-0.51049 0.65307,-1.06419 1.01809,-1.67053c0.79741,-1.32458 1.33684,-3.18276 2.79267,-3.7033c0.2967,-0.10609 0.59752,-0.19057 0.90176,-0.25712l-0.02079,-0.10396l3.44278,-0.68856c-2.43597,-0.27736 -5.02694,-0.1214 -7.05861,-0.16991c-1.49684,-0.03574 -3.01908,-0.10217 -4.55394,-0.16739zM285.71118,116.66958c0.34978,-0.1017 0.696,-0.2183 1.03728,-0.34679c0.00057,-0.00052 0.00114,-0.00103 0.00171,-0.00155l-0.05347,-0.05347l0.84785,-0.84785c-0.61112,0.41655 -1.22224,0.83311 -1.83336,1.24966zM291.06803,110.03811c-0.23895,-0.1777 -0.49066,-0.33868 -0.75337,-0.48448c0.11948,0.29191 0.18534,0.61145 0.18534,0.94637c0,0.52532 -0.16203,1.0128 -0.43883,1.41519l-1.97622,2.96433l2.14729,-2.14729c0,0 0,0 0,0c0.45241,-0.45241 1.07741,-0.73223 1.76777,-0.73223c0.51762,0 0.99849,0.15731 1.39742,0.42672c-0.74883,-0.8293 -1.43683,-1.72485 -2.32939,-2.38862zM287.94454,114.79636l-0.13413,0.3577l0.26828,-0.26828zM291.65451,119.3742c-0.17411,0.0877 -0.34714,0.1775 -0.51931,0.2687c2.37181,0.88711 4.74126,1.81777 7.11762,2.73354c0.56352,-1.10447 0.707,-2.54595 0.31407,-4.30206c-0.45324,-2.02562 -2.56607,-3.30168 -4.15185,-4.64103c-0.10263,-0.08668 -0.20271,-0.17619 -0.30072,-0.26801c0.24428,0.38618 0.38569,0.8439 0.38569,1.33465c0,0.52532 -0.16203,1.0128 -0.43883,1.41519l-1.98104,2.97156l-0.2417,-0.16113zM289.20419,124.32036c0.42126,0.74226 1.39467,0.83838 2.29144,0.79657c-0.78263,-0.30346 -1.56483,-0.60504 -2.34685,-0.90289c0.01693,0.03559 0.03538,0.07103 0.05541,0.10632zM269.31009,109.47397c-0.22876,1.02789 -0.69568,2.13616 -0.86821,3.1593c0.25851,0.06926 0.51778,0.13688 0.77772,0.20306c0.25062,-0.23545 0.48331,-0.47383 0.69476,-0.71478c0.31347,-0.3572 0.73555,-0.83197 0.60776,-1.28972c-0.16228,-0.58131 -0.81379,-0.89701 -1.21203,-1.35786zM253.781,115.54648c-0.68134,0.74356 -1.42299,1.41193 -2.23226,1.95728c0.75137,1.60722 2.13247,2.71815 4.38465,2.49713c1.3124,-0.12879 2.5508,-0.73266 3.72442,-1.33401c1.21666,-0.62341 2.71586,-1.3659 4.22683,-2.19956c-0.59238,-0.1933 -1.1769,-0.3999 -1.75199,-0.6226c-1.08876,-0.42163 -2.05498,-1.12715 -3.10478,-1.63376c-1.72758,0.78878 -3.57945,1.33775 -5.24686,1.33553zM246.91717,119.00686c-1.99176,0.18964 -4.42633,0.69954 -5.68494,-0.73909c-1.5148,-1.73147 -1.3341,-4.75437 -0.4683,-6.8858c0.32199,-0.79267 1.19473,-1.64423 2.3381,-2.48877c-2.81967,-0.40071 -5.69533,-0.45762 -8.50248,-0.92548c-1.03975,-0.17329 -1.9565,-0.85093 -3,-1c-1.31993,-0.18856 -2.68109,0.1956 -4,0c-4.68383,-0.69465 -8.87535,-3.60059 -13.29851,-5.06742c-7.55629,-1.88907 -15.03842,-2.65762 -22.70922,-3.93385c-3.07259,-0.5112 -5.93124,-1.56215 -9.19135,-0.99873c-1.0387,0.17951 -1.95378,0.87144 -3,1c-0.30645,0.03766 -0.61342,0.06847 -0.92083,0.09338c-0.27383,1.54725 -1.98934,1.89035 -1.98934,1.89035c-4.23418,0.83725 -8.56446,1.12189 -12.69018,2.3584c-0.36999,0.39117 -0.93556,0.69015 -1.80011,0.69015c-0.06655,0 -0.13133,-0.00177 -0.19439,-0.00522c-0.57446,0.22485 -1.14382,0.47376 -1.70723,0.75101c-7.3028,3.59367 -9.74164,11.60746 -12.66852,18.4068c-0.81882,1.90218 -2.33201,3.45351 -3.14357,5.3588c-0.53859,1.26444 -0.45861,2.73676 -1,4c-0.47343,1.10467 -1.51077,1.90223 -2,3c-1.37471,3.08466 -0.78629,6.73029 -0.78629,9.98862c0,2.89819 -0.37865,5.81879 -0.01873,8.69454c0.34136,2.72746 1.65314,5.27324 2,8c0.6373,5.00999 1.04787,9.58581 2.86619,14.44556c1.91272,5.11204 4.54112,9.92583 6.89833,14.76152c1.07966,2.21487 3.35278,3.62968 4.78232,5.6366c1.82533,2.56259 2.73,5.70428 4.55674,8.26587c0.46328,0.64965 0.97082,1.26804 1.50795,1.86512c0.492,-0.16921 0.9072,-0.16921 0.9072,-0.16921c13.33333,0 26.66667,0 40,0c6.0005,0 12.17307,-0.45767 18.15534,0.00483c5.7165,0.44195 11.08119,0.99517 16.84466,0.99517c13.06095,0 25.93225,1 39,1c4.15882,0 8.65499,0.44463 12.7938,0.00852c3.36158,-0.35422 6.71098,-0.94279 10.09059,-1.00562c3.72242,-0.06921 8.09236,0.48996 11.81015,0.01584c3.09528,-0.39473 6.18513,-1.00771 9.30546,-1.01873c5.40938,0 11.35699,0.8011 16.69454,0.01873c1.35984,-0.19932 2.63585,-0.83268 4,-1c6.38381,-0.78303 12.34011,0.24833 18.51489,-1.89044l0.88348,-0.0633c1.54135,-1.80505 3.04725,-3.56924 4.23254,-5.94831c1.8707,-3.75481 3.51043,-8.91674 4.20682,-13.01714c0.4465,-2.62902 -0.32524,-5.35324 0,-8c0.12856,-1.04622 0.85497,-1.95593 1,-3c0.5076,-3.65427 0.12423,-3.84043 -0.90399,-6.80897c-3.87874,-11.71846 -15.68812,-21.72877 -27.38572,-25.40807c-3.18402,-1.00149 -6.51184,-1.51193 -9.67998,-2.56261c-4.3913,-1.45632 -8.77924,-3.18272 -13.23948,-4.41327c-4.28399,-1.18193 -8.78635,-1.69824 -13.03268,-3.00943c-2.55084,-0.78766 -5.08182,-1.6816 -7.60038,-2.62174c-1.94606,1.2119 -4.35959,1.72455 -6.69004,1.72455c-1.242,0 -2.57317,0.35867 -3.72446,-0.10727c-1.70341,-0.6894 -3.52365,-1.64376 -4.47973,-3.21309c-0.51676,-0.84822 -0.54242,-2.52796 -0.3061,-4.28228c-1.00286,0.08075 -2.06276,-0.05182 -3.21417,-0.50464c-1.61391,-0.6347 -2.74667,-1.20786 -3.49798,-1.77614c-0.92235,-0.00772 -1.85831,-0.11978 -2.77756,-0.11659c-1.6223,0.00563 -4.97374,0.30609 -7.45466,-0.40151c-0.47179,0.25427 -0.92353,0.50199 -1.34094,0.74794c-3.36337,1.98179 -5.86089,4.54633 -10.13778,4.65269c-4.77566,0.11876 -7.73188,-2.49069 -9.14944,-5.99225zM258.81538,108.63977c-0.18479,0.0393 -0.36909,0.08032 -0.55288,0.12314c0.08148,0.01408 0.16283,0.02868 0.24399,0.04395c0.10352,-0.05475 0.2065,-0.11043 0.30889,-0.16709zM163.23223,40.26777c-0.2837,-0.2837 -0.47634,-0.5674 -0.59984,-0.84379c-0.22958,0.21808 -0.51919,0.412 -0.87768,0.51971c0.41451,0.02057 0.81862,0.08748 1.202,0.24662c0.1461,0.06064 0.28528,0.13236 0.41879,0.21312c-0.04773,-0.04271 -0.0955,-0.08789 -0.14326,-0.13566zM308.88197,258.73607c-2.23607,-1.11803 -1.11803,-3.3541 -1.11803,-3.3541l0.86436,-1.67254c4.33733,-13.01198 8.92704,-26.34114 8.87171,-40.20943c0,0 0,-1.7321 1.44175,-2.3128c-1.88205,0.21378 -3.75669,0.56352 -5.63629,0.79407c-3.91116,0.47974 -8.4047,-0.04583 -12.33207,0.02083c-3.27192,0.05553 -6.51169,0.65733 -9.76719,0.98938c-4.28478,0.43703 -8.9017,0.00852 -13.2062,0.00852c-3.02139,0 -6.03225,-0.05345 -9.03734,-0.13564c0.88159,1.00858 0.40905,2.42621 0.40905,2.42621c-1.83797,5.39972 -5.62816,9.75372 -7.91694,14.9385c-2.924,6.62374 -4.04741,13.88425 -7.21236,20.3762l-1.47464,1.66251c0,0 -1.76777,1.76777 -3.53553,0c-1.76777,-1.76777 0,-3.53553 0,-3.53553l0.52536,-0.33749c3.17161,-6.35451 4.22376,-13.61459 7.10525,-20.14412c2.21782,-5.02565 6.06416,-9.30118 7.76545,-14.54119c0,0 0.16592,-0.49777 0.57378,-0.96122c-8.72698,-0.29623 -17.422,-0.74822 -26.20208,-0.74822c-5.85769,0 -11.34777,-0.54875 -17.15534,-1.00483c-5.16695,-0.40577 -10.4866,-0.09418 -15.70364,-0.01308c0.20197,0.02208 0.41824,0.0691 0.64955,0.14621c2.37171,0.79057 1.58114,3.16228 1.58114,3.16228c-2.29823,6.75192 -6.96456,12.73222 -6.87171,20.20943l-1.73223,2.76777c0,0 -0.15906,0.15906 -0.42947,0.33405c2.6577,1.93888 5.36666,3.78836 8.15185,5.44918c7.1931,4.28927 14.28413,7.75971 22.12733,10.68792c8.83997,3.30035 17.3574,7.06322 26.67091,8.88444c2.37488,0.79202 4.63938,2.02709 7.11352,2.40916c2.58419,0.39906 5.24204,-0.2749 7.84444,-0.02035c1.65974,0.16235 3.24674,0.81253 4.90589,0.98088c5.79684,0.58818 12.02926,-0.0003 17.84777,0.00696c4.49477,0.00561 7.94758,-0.5739 12.2139,-1.87319c0.74939,-0.22822 1.6669,-0.11196 2.26862,-0.61357c0.77913,-0.64951 0.9332,-1.82026 1.58413,-2.59821c1.12223,-1.34121 2.46601,-2.48028 3.70112,-3.71833c6.48043,-6.49584 12.97633,-12.97633 19.46447,-19.46447c4.34754,-4.34193 7.98031,-9.15742 12.00569,-13.77813c3.78659,-4.34662 8.39757,-8.24087 11.73397,-12.91588c0.41302,-0.57873 0.69259,-1.2366 0.96468,-1.89934c-1.5185,0.32103 -3.04483,0.58832 -4.53612,0.82884c-3.29052,0.5307 -6.79797,-0.40691 -10.095,0.01355c-1.36333,0.17386 -2.6388,0.81018 -4,1c-5.56698,0.7763 -11.67765,0.01873 -17.30546,0.01873c-0.48596,-0.00194 -0.97099,0.01415 -1.45529,0.04396c1.95529,0.33383 1.95529,2.45604 1.95529,2.45604c-0.05101,14.44702 -4.60492,28.22045 -9.12829,41.79057l-1.13564,2.32746c0,0 -1.11803,2.23607 -3.3541,1.11803zM196.23223,233.73223l0.26777,0.76777c0.05097,-5.36863 1.87816,-11.35314 4.28744,-16.16387c0.94085,-1.87863 2.19203,-3.62832 2.84085,-5.6267c0,0 0.50403,-1.5121 1.91455,-1.7191c-0.51547,0.00614 -1.02983,0.00967 -1.54285,0.00967c-11.97257,0 -23.94513,0 -35.9177,0c0.81297,0.77154 1.60212,1.55673 2.32834,2.38206c1.5525,1.76439 2.94357,3.79699 4.95004,5.02067c1.13569,0.7765 2.42726,1.36374 3.40708,2.3295c0.85595,0.84367 1.15476,2.14559 2,3c1.94306,1.96414 4.57878,3.09991 6.76329,4.79144c2.66081,2.06034 5.33621,4.18652 8.05421,6.26702c0.22556,-0.63706 0.64697,-1.05846 0.64697,-1.05846z"/><path d="M297.5,54.5c0,-1.38071 1.11929,-2.5 2.5,-2.5c1.38071,0 2.5,1.11929 2.5,2.5c0,1.38071 -1.11929,2.5 -2.5,2.5c-1.38071,0 -2.5,-1.11929 -2.5,-2.5z"/></g></g></svg>