<svg version="1.1" xmlns="http://www.w3.org/2000/svg" xmlns:xlink="http://www.w3.org/1999/xlink" width="237.99017" height="222.80318" viewBox="0,0,237.99017,222.80318"><g transform="translate(-135.5,-49.62187)"><g data-paper-data="{&quot;isPaintingLayer&quot;:true}" fill="#9966ff" fill-rule="nonzero" stroke="none" stroke-width="0.5" stroke-linecap="butt" stroke-linejoin="miter" stroke-miterlimit="10" stroke-dasharray="" stroke-dashoffset="0" style="mix-blend-mode: normal"><path d="M371.76777,238.26777c-1.76777,1.76777 -3.53553,0 -3.53553,0l-1,-1c-3.17839,-3.20364 -8.19202,-7.71017 -6.54193,-12.72448c0.13532,-0.4112 3.6774,-3.99198 4.37634,-4.62826c0.45819,-0.41712 1.38355,-0.55217 1.44552,-1.16868c0.04556,-0.45321 -0.92575,-0.19218 -1.27993,-0.47858c-1.02178,-0.82623 -1.87866,-1.83842 -2.78,-2.79498l-2.80672,-1.87115c-0.68925,-0.44514 -1.14551,-1.2201 -1.14551,-2.10163c0,-1.1246 0.74256,-2.07576 1.76412,-2.38994l2.70431,-0.90144c0.85829,-0.59079 1.63853,-1.32138 2.58764,-1.74947c0.92494,-0.41719 2.79795,0.26796 2.95403,-0.73464c0.14491,-0.93083 -1.96859,0.29578 -2.82443,-0.09789c-1.58215,-0.72776 -2.80522,-2.06492 -4.18567,-3.12663c-3.63152,-2.793 -6.89444,-3.94767 -5.90929,-9.66733c0.47672,-2.76778 5.47987,-4.66304 7.29125,-5.56873c0.49504,-0.24752 0.97557,-0.53562 1.46032,-0.81269c-1.62082,-0.61657 -2.97532,-1.7722 -4.44066,-2.70545c-1.43158,-0.91175 -3.94173,-1.02027 -4.33474,-2.67141c-0.39325,-1.65216 1.62786,-2.99758 2.66536,-4.34215c1.42763,-1.85017 3.04861,-3.39215 4.9018,-4.63171l-0.13403,-0.10052l0.02622,-0.03496c-5.09705,-0.16598 -10.79339,-0.83245 -15.62577,0.00268c-2.12949,0.36802 -4.2395,1.01177 -6.40046,1.03228c0,0 -2.15443,0 -2.4633,-2c-0.18544,0 -0.36476,0 -0.5367,0c-1.86655,0 -3.76026,-0.35015 -5.59954,-0.03228c-3.34441,0.57798 -6.24761,1.5904 -9.80091,1c-0.71834,-0.11936 -5.35709,-1.81533 -6.26634,-2.05828c-7.2773,-1.94451 -15.19326,-3.87267 -22.63866,-4.92817c-6.24697,-0.88561 -13.37269,-0.86305 -19.00887,-4.35464c-3.82199,-2.36771 -5.71969,-7.61059 -8.8123,-10.8123c-0.8955,-2.59644 -2.72619,-4.76882 -4.08782,-7.15406c-0.53393,-0.9353 -0.54965,-2.09864 -1.03134,-3.06189c-1.53786,-3.07531 -3.47348,-5.91963 -5,-9c-0.57134,-1.15291 -1.50761,-4.8477 -2.06391,-6.14167c-1.46091,-3.39811 -3.53766,-6.82262 -4.15802,-10.55625c-0.55198,-3.32207 0.49562,-3.62003 0,-7c-0.15293,-1.04294 -0.83216,-1.95936 -1,-3c-0.39278,-2.43537 -0.03228,-4.93361 -0.03228,-7.40046c0,-2.01893 -0.1822,-4.19288 -0.20917,-6.3241c-4.02494,-3.00075 -7.39286,-7.56112 -8.69113,-11.97693c-0.69881,-2.37686 -1.82219,-6.08949 -0.9094,-8.65568c0.35894,-1.00911 1.63601,-1.43683 2.18307,-2.35762c0.5384,-0.90622 0.44721,-2.10249 1,-3c1.02441,-1.66322 2.88297,-3.28706 4.5612,-4.78569c-1.26165,-1.17783 -2.97814,-1.87491 -4.53295,-2.65419c-2.49596,-1.25098 -7.37047,-2.76426 -10.17716,-1.85306c-3.23352,1.04977 -3.16776,3.53814 -4.59783,5.9216c-0.48507,0.80845 -1.50584,1.19707 -2,2c-2.04449,3.32192 -2.63661,8.65324 -2.7339,12.41013c-4.86945,7.59836 -2.48442,15.5906 -0.6631,23.76695c0.35973,1.61493 0.31008,3.30588 0.69866,4.91411c1.38544,5.73399 4.26165,11.2024 5.96537,16.87311c1.28432,4.27479 1.85373,8.69046 2.98847,12.96279c0.64252,2.41913 2.08814,4.55443 2.96533,6.89869c1.4434,3.85745 2.62646,7.84413 3.89833,11.76152c1.19478,1.79217 1.77824,3.93374 2.88084,5.78405c1.60474,2.69299 5.6494,3.20796 1.64114,8.08209c-1.02128,1.24189 -3.16483,0.60618 -4.76777,0.73223c-2.78065,0.21867 -5.54426,-0.62428 -8.30546,-1.01873c-11.52375,-1.64622 -23.43104,-5.08345 -34.90397,-1.10956c0,0 -0.64421,0.21474 -1.37306,0.08463c-0.24924,0.04366 -0.41751,0.04366 -0.41751,0.04366c-1.89404,-0.02352 -3.73049,0.66022 -5.59954,0.96772c-3.54362,0.583 -7.62548,0.83086 -11.24511,1.02745c-4.17657,0.22684 -8.71096,-0.60528 -12.84989,-0.0139c-2.37094,0.33876 -4.54365,1.58627 -6.905,1.98645c-0.98594,0.16709 -2.01274,-0.15909 -3,0c-2.08134,0.33539 -3.91855,1.66534 -6,2c-0.80593,0.12958 -1.6752,-0.43306 -2.44375,-0.15802c-1.78139,0.63752 -3.12015,3.95608 -3.585,5.48087c-1.48347,4.28288 -1.79008,11.33706 2.94262,14.0828c1.87928,1.09029 4.18412,1.17476 6.29201,1.70127c3.08663,0.77099 6.54275,2.07235 9.74485,2.75566c3.52576,-0.65261 7.779,0.80155 11.24836,0.20197c1.46096,-0.25249 2.91272,-0.63997 4.3781,-0.86142c0.20333,-0.06336 0.40993,-0.11253 0.6219,-0.13858c3.70626,-0.45544 6.06618,0.11866 9.17517,-0.51025c0.61556,-0.35506 1.21796,-0.71811 1.82483,-0.48975c0.01948,0.00733 0.03838,0.01524 0.05671,0.02372l5.84375,2.444c-1.47069,0.71168 -5.86326,3.10704 -8.09954,3.46772c-2.15416,0.34743 -4.42853,-0.01066 -6.65686,-0.12929c-0.43504,0.02912 -0.8817,0.07053 -1.34314,0.12929c-1.04565,0.13315 -1.95936,0.83216 -3,1c-3.8864,0.62681 -9.87562,0.64437 -13.80091,0c-0.01731,-0.00284 -0.03462,-0.0057 -0.05195,-0.00859c-0.74222,0.31645 -1.28294,1.0237 -1.96262,1.47423c-0.36625,0.24277 -1.11086,0.20354 -1.15185,0.64103c-0.05863,0.62569 0.69924,1.05398 0.93859,1.63505c1.35095,3.27968 3.36066,5.82131 6.72667,7.54478c2.56655,1.31413 5.52955,0.85389 8.30208,1.77807c1.95888,0 3.86816,0.61109 5.79697,0.96387c4.2674,-0.01115 8.5352,0.00385 12.80257,0.00385c3,0 6,0 9,0c1,0 2.18627,-0.58124 3,0c0.26429,0.18878 0.37526,0.4767 0.42079,0.80693l5.07921,1.69307c-1.83333,0.83333 -3.56799,1.93176 -5.5,2.5c-2.23852,0.65839 -4.66667,0 -7,0c0,0 0,0 0,0c-4,0 -8,0 -12,0c-0.20967,0 -1.40788,0.00181 -2.71264,0.00037c-1.42912,0.00136 -2.85825,0.0057 -4.28736,-0.00037c-1.39013,-0.0059 -3.38691,-0.95289 -4.16569,0.19862c-0.49544,0.73256 -0.33674,4.56155 -0.33431,5.30138c0.00778,2.36592 -0.60646,5.49955 0.62663,7.68567c0.86616,1.53561 2.08814,1.42865 3.66394,1.94262c3.20347,1.04485 6.18657,1.05836 9.51489,1.89044c3.2279,-0.02244 6.45697,-0.03989 9.6861,-0.04396c2.83725,-0.3765 6.17686,0.0089 9.00844,0.02523c0.86657,0.005 1.80303,-0.30908 2.59954,0.03228l5.90046,1.46772c-1.69985,1.15591 -3.19875,2.68504 -5.09954,3.46772c-0.06695,0.02757 -2.68426,0.03281 -4.55479,0.03319c-2.55985,0.01327 -5.11991,0.01793 -7.67997,0.0163c-0.94362,0.2333 -1.79746,0.8407 -2.76524,0.95051c-0.65841,0.07471 -1.3006,-0.61833 -1.93868,-0.43961c-0.87932,0.24628 0.13489,1.91393 0.66485,2.65757c0.54717,0.76779 1.52642,1.18476 2,2c0.43969,0.7569 0.03218,1.91776 0.64114,2.54656c0.55385,0.57189 1.61266,0.17797 2.33061,0.52198c0.96616,0.46295 1.61033,1.51242 2.62608,1.85306c0.84604,0.28372 1.79527,-0.21852 2.676,-0.07499c1.04037,0.16955 1.9613,0.82049 3,1c0.85115,0.1471 1.7122,0.1737 2.57732,0.15176c1.6214,-0.42597 3.30355,-0.63873 4.02222,-0.18404l5.5,2.5c-1.83333,0.83333 -3.57359,1.91307 -5.5,2.5c-1.02496,0.31228 -1.61235,0.18662 -2.14343,0.0634c-0.59933,0.02791 -1.19891,0.05808 -1.7974,0.07475c-0.09257,0.03703 -0.18951,0.08001 -0.2914,0.12962c-0.60477,0.29446 0.72197,1.14164 1.16559,1.64726c0.79264,0.90342 1.25152,2.05967 2,3c2.55092,3.20474 5.28046,4.51908 9.3721,5.1037c3.29029,0.47012 7.43595,-0.01873 10.69454,-0.01873c4.33473,0 9.33976,0.74508 13.59954,0.03228c2.84722,-0.47643 5.96042,-2.02061 8.70149,-2.93258c3.62201,-0.9055 9.15973,-1.74154 12.38464,-3.72633c0.80293,-0.49416 1.19155,-1.51493 2,-2c0.90388,-0.54233 2.09612,-0.45767 3,-1c0.80845,-0.48507 1.19155,-1.51493 2,-2c0.90388,-0.54233 2.09612,-0.45767 3,-1c0.80845,-0.48507 1.18709,-1.52243 2,-2c1.07411,-0.63102 2.34917,-0.83005 3.52376,-1.24508l-1.70943,0.37171c0,0 0,-2.5 2.5,-2.5c2.5,0 2.5,2.5 2.5,2.5l-1.70943,4.37171c-1.67587,0.51092 -2.97389,1.85351 -4.47624,2.75492c-2.57318,1.54391 -5.42682,2.45609 -8,4c-0.80845,0.48507 -1.18709,1.52243 -2,2c-3.75768,2.20755 -9.43422,3.22839 -13.61536,4.27367c-2.94681,0.98424 -6.24149,2.55948 -9.29851,3.06742c-6.07752,1.00982 -13.22938,0.03228 -19.40046,0.03228c-4.73825,0 -10.05683,0.17499 -14.31433,-2.37337c-2.7881,-1.66884 -4.75253,-5.04846 -6.61903,-7.54165c-0.78171,-1.04418 -2.37011,-1.71268 -2.49977,-3.01059c-0.08862,-0.88707 0.0107,-1.82294 0.27103,-2.71298c-0.40377,-0.1674 -0.811,-0.32103 -1.23837,-0.39368c-1.09261,-0.18573 -2.27209,0.27397 -3.324,-0.07499c-1.26523,-0.41972 -2.18866,-1.53693 -3.37392,-2.14694c-1.17246,-0.60342 -2.72796,-0.55472 -3.66939,-1.47802c-0.88319,-0.86619 -0.71012,-2.40014 -1.35886,-3.45344c-0.49443,-0.80276 -1.55574,-1.16842 -2,-2c-0.95831,-1.79379 -1.62679,-3.86757 -1.31384,-5.82828c-0.28833,-0.00155 -0.57666,-0.00314 -0.86499,-0.00478c-4.46738,-1.11685 -9.96476,-0.76494 -14.00887,-3.35464c-4.8457,-3.10301 -5.1532,-11.28163 -4.16694,-16.43209c0.24725,-1.29121 0.35919,-2.71351 0.82037,-3.94215c-2.16658,-0.3092 -4.28998,-0.45016 -6.43748,-1.5066c-2.71985,-1.33801 -3.68784,-2.46271 -5.66939,-4.47802c-2.11138,-2.14735 -5.43887,-6.99831 -4.66536,-10.34215c0.16479,-0.71238 0.92167,-1.62907 1.88753,-2.52607c-1.73516,-0.52868 -3.45395,-1.07215 -5.06074,-1.47419c-1.4239,-0.35628 -6.31689,-1.44741 -7.70799,-2.29873c-4.51945,-2.76582 -6.18567,-8.23291 -6.18567,-13.12663c0,-2.29456 0.42244,-4.60728 1.12829,-6.79057c1.07883,-3.05324 3.10335,-7.11488 6.415,-8.51913c1.09243,-0.46323 2.38688,0.04338 3.55625,-0.15802c2.0776,-0.35783 3.92216,-1.64362 6,-2c0.98561,-0.16905 2.01311,0.16142 3,0c2.42615,-0.39684 4.6613,-1.66593 7.095,-2.01355c4.25759,-0.60814 8.8568,0.21614 13.15011,-0.0139c5.80959,-0.31128 11.44348,-1.95061 17.15534,-2.00483c0,0 0.18662,0 0.45788,0.05099c1.98466,-0.59405 4.09554,-0.67768 6.14167,-1.01871c4.16459,-0.6941 8.43496,-1.70415 12.80091,-1c1.04064,0.16784 1.95402,0.86947 3,1c1.62242,0.20246 3.28066,-0.20002 4.905,-0.01355c2.44236,0.28037 4.66898,1.61587 7.095,2.01355c2.29441,0.37611 4.59865,0.69232 6.905,0.98645c1.43151,0.18256 3.05265,-0.10527 4.36118,0.41882c-0.62864,-0.50657 -1.37624,-0.93319 -1.79326,-1.62323c-1.19904,-1.98405 -1.83325,-4.28708 -3.11916,-6.21595c-1.38349,-4.06451 -2.59983,-8.21698 -4.10167,-12.23848c-0.90059,-2.41151 -2.35662,-4.61803 -3.03467,-7.10131c-1.17075,-4.28772 -1.72111,-8.74152 -3.01153,-13.03721c-1.73111,-5.76269 -4.60625,-11.29975 -6.03463,-17.12689c-0.39969,-1.63055 -0.35216,-3.34636 -0.71555,-4.98538c-1.90783,-8.60491 -4.77725,-18.41254 0.75111,-26.33356c-0.14237,-4.15029 1.10784,-9.91609 3.2661,-13.58987c0.47757,-0.81291 1.51493,-1.19155 2,-2c0.54233,-0.90388 0.43794,-2.10826 1,-3c1.06611,-1.69145 4.69902,-4.50208 6.40217,-5.0784c3.98625,-1.34889 10.23491,0.35652 13.82284,2.14694c0.57369,0.28628 6.64641,4.42299 6.88839,4.7283c0.07469,0.09423 0.14358,0.19176 0.20743,0.29215c0.18968,0.11537 0.38162,0.26563 0.57357,0.45757c1.03886,1.03886 0.85671,2.07772 0.52987,2.7578c0.02373,0.07369 0.04835,0.14686 0.07407,0.21939c0.14525,0.40968 2.06191,6.1849 2.09601,6.39011c0.70069,4.21705 0.03228,9.1319 0.03228,13.40046c-0.02051,2.16096 -0.66426,4.27097 -1.03228,6.40046c-0.0387,0.2239 -0.07144,0.45081 -0.0989,0.68028c0.43432,0.20676 0.90541,0.39014 1.42175,0.54755l1.70943,3.37171c0,0 0,2.5 -2.5,2.5c-0.21376,0 -0.40924,-0.01828 -0.588,-0.0517c0.04816,0.87217 0.088,1.72936 0.088,2.5517c0,2.19987 -0.40691,4.4318 -0.03228,6.59954c0.17951,1.0387 0.85438,1.95602 1,3c0.32235,2.31096 -0.38509,4.69866 0,7c0.55278,3.30349 2.56194,6.44803 3.84198,9.44375c0.80811,1.89124 1.00911,4.02243 1.93609,5.85833c1.55234,3.07445 3.46016,5.91991 5,9c0.46113,0.92238 0.45664,2.04298 0.96866,2.93811c1.305,2.28144 3.10996,4.34305 3.91218,6.84594c2.58637,2.47561 4.129,7.44472 7.1877,9.1877c5.14432,2.93145 11.38421,2.8385 16.99113,3.64536c7.69441,1.10725 15.84402,3.05846 23.36134,5.07183c1.94914,0.52204 3.74349,1.6087 5.73366,1.94172c3.03275,0.50748 5.34688,-0.53999 8.19909,-1c0.25901,-0.04177 5.92044,-0.03228 6.40046,-0.03228c2,0 4,0 6,0h1c0,0 1.32461,0 2.04545,0.96419c5.70484,-0.82334 12.22013,0.03581 17.95455,0.03581h3c1.38071,0 2.5,1.11929 2.5,2.5c0,0.57191 -0.19204,1.09897 -0.51515,1.5202l-2.98485,3.9798l-0.23841,-0.17881c-0.59328,0.87419 -1.24794,1.6994 -1.99382,2.44657c-0.71177,0.713 -1.32006,1.55746 -2.04696,2.25149c0.83771,0.47234 1.50874,1.29627 2.37757,1.73496c1.83763,0.92785 6.81104,1.35254 7.33474,3.67141c0.8087,3.58077 -5.48923,5.89752 -7.31509,6.81045c-1.21398,0.60699 -2.45026,1.16934 -3.65626,1.79204c-0.36472,0.18832 -0.99302,0.23309 -1.05249,0.63923c-0.40529,2.76816 6.28614,5.98591 7.90504,7.20604c1.72541,1.30041 5.14503,1.74175 5.17557,3.90211c0.03436,2.43071 -3.23025,3.64897 -5.04597,5.26536c-0.68086,0.60611 -1.47128,1.06961 -2.2591,1.53649c1.5426,1.45251 5.28887,5.46313 5.303,6.17632c0.08998,4.53902 -4.32014,5.30338 -6.17813,8.20305c-0.77568,1.21056 1.24069,1.99629 1.62366,2.45832c1.30971,1.58009 2.37638,3.37285 3.83441,4.81721l1,1c0,0 1.76777,1.76777 0,3.53553zM246.12663,66.81433c-0.52948,0.91146 -0.45318,2.09883 -1,3c-0.42351,0.69796 -1.45962,0.90832 -1.81693,1.64238c-0.79574,1.63477 0.60911,3.59108 1.0906,5.34432c0.42648,1.55293 1.52327,2.85948 2.53305,4.114c0.78657,0.97721 1.45157,1.92052 2.11335,2.794c0.24702,-1.06213 0.46675,-2.12601 0.4533,-3.20903c0,-5.01428 0.7455,-10.44451 -0.87171,-15.20943c-0.11075,-0.32632 -0.196,-0.66547 -0.26905,-1.01056c-0.91143,0.82998 -1.74056,1.68727 -2.23262,2.53432z"/><path d="M371.49961,243.54424c-0.04424,2.49961 -2.54385,2.45536 -2.54385,2.45536l-1.54314,-0.06758c-1.60073,-0.32086 -3.20147,-0.64172 -4.8022,-0.96257c-12.97252,-1.49884 -25.55738,-1.96946 -38.61041,-1.96946c-4.52237,0 -9.37445,-0.56226 -13.84295,0.00647c-2.9129,0.37074 -5.84733,0.56294 -8.75659,0.96125c-2.0887,0.28597 -3.91358,1.69783 -6,2c-1.45171,0.21025 -2.93364,0.02152 -4.40046,0.03228c0,0 -2.5,0 -2.5,-2.5c0,-2.5 2.5,-2.5 2.5,-2.5c3.94957,0.03542 5.83767,-1.41117 9.59954,-1.96772c3.00209,-0.44414 6.0371,-0.62985 9.04922,-0.99991c4.65329,-0.57169 9.64996,-0.03237 14.35124,-0.03237c13.3111,0 26.16097,0.48847 39.38959,2.03054c1.66787,0.33286 3.33574,0.66572 5.0036,0.99859l0.65105,-0.02874c0,0 2.49961,0.04424 2.45536,2.54385z"/></g></g></svg>